<svg width="32" height="32" viewBox="0 0 32 32" fill="none" xmlns="http://www.w3.org/2000/svg">
<mask id="path-1-inside-1_13513_48256" fill="white">
<path d="M0 16C0 7.16344 7.16344 0 16 0C24.8366 0 32 7.16344 32 16C32 24.8366 24.8366 32 16 32C7.16344 32 0 24.8366 0 16Z"/>
</mask>
<path d="M0 16C0 7.16344 7.16344 0 16 0C24.8366 0 32 7.16344 32 16C32 24.8366 24.8366 32 16 32C7.16344 32 0 24.8366 0 16Z" fill="white"/>
<path d="M0 16M32 16M32 16M0 16M16 0M32 16M16 32M0 16M16 32V31C7.71573 31 1 24.2843 1 16H0H-1C-1 25.3888 6.61116 33 16 33V32ZM32 16H31C31 24.2843 24.2843 31 16 31V32V33C25.3888 33 33 25.3888 33 16H32ZM16 0V1C24.2843 1 31 7.71573 31 16H32H33C33 6.61116 25.3888 -1 16 -1V0ZM16 0V-1C6.61116 -1 -1 6.61116 -1 16H0H1C1 7.71573 7.71573 1 16 1V0Z" fill="black" fill-opacity="0.1" mask="url(#path-1-inside-1_13513_48256)"/>
<g clip-path="url(#clip0_13513_48256)">
<path d="M21.4223 18.4453L19.5173 18.2278C19.0598 18.1753 18.6098 18.3328 18.2873 18.6553L16.9073 20.0353C14.7848 18.9553 13.0448 17.2228 11.9648 15.0928L13.3523 13.7053C13.6748 13.3828 13.8323 12.9328 13.7798 12.4753L13.5623 10.5853C13.4723 9.82781 12.8348 9.25781 12.0698 9.25781H10.7723C9.92479 9.25781 9.21979 9.96281 9.27229 10.8103C9.66979 17.2153 14.7923 22.3303 21.1898 22.7278C22.0373 22.7803 22.7423 22.0753 22.7423 21.2278V19.9303C22.7498 19.1728 22.1798 18.5353 21.4223 18.4453Z" fill="#212427"/>
</g>
<defs>
<clipPath id="clip0_13513_48256">
<rect width="18" height="18" fill="white" transform="translate(7 7)"/>
</clipPath>
</defs>
</svg>
