<svg width="32" height="32" viewBox="0 0 32 32" fill="none" xmlns="http://www.w3.org/2000/svg">
<mask id="path-1-inside-1_13513_48301" fill="white">
<path d="M0 16C0 7.16344 7.16344 0 16 0C24.8366 0 32 7.16344 32 16C32 24.8366 24.8366 32 16 32C7.16344 32 0 24.8366 0 16Z"/>
</mask>
<path d="M0 16C0 7.16344 7.16344 0 16 0C24.8366 0 32 7.16344 32 16C32 24.8366 24.8366 32 16 32C7.16344 32 0 24.8366 0 16Z" fill="white"/>
<path d="M0 16M32 16M32 16M0 16M16 0M32 16M16 32M0 16M16 32V31C7.71573 31 1 24.2843 1 16H0H-1C-1 25.3888 6.61116 33 16 33V32ZM32 16H31C31 24.2843 24.2843 31 16 31V32V33C25.3888 33 33 25.3888 33 16H32ZM16 0V1C24.2843 1 31 7.71573 31 16H32H33C33 6.61116 25.3888 -1 16 -1V0ZM16 0V-1C6.61116 -1 -1 6.61116 -1 16H0H1C1 7.71573 7.71573 1 16 1V0Z" fill="black" fill-opacity="0.1" mask="url(#path-1-inside-1_13513_48301)"/>
<g clip-path="url(#clip0_13513_48301)">
<path d="M22 8.5H10C9.175 8.5 8.5075 9.175 8.5075 10L8.5 23.5L11.5 20.5H22C22.825 20.5 23.5 19.825 23.5 19V10C23.5 9.175 22.825 8.5 22 8.5ZM13.75 15.25H12.25V13.75H13.75V15.25ZM16.75 15.25H15.25V13.75H16.75V15.25ZM19.75 15.25H18.25V13.75H19.75V15.25Z" fill="#212427"/>
</g>
<defs>
<clipPath id="clip0_13513_48301">
<rect width="18" height="18" fill="white" transform="translate(7 7)"/>
</clipPath>
</defs>
</svg>
