<svg width="32" height="32" viewBox="0 0 32 32" fill="none" xmlns="http://www.w3.org/2000/svg">
<mask id="path-1-inside-1_13513_48260" fill="white">
<path d="M0 16C0 7.16344 7.16344 0 16 0C24.8366 0 32 7.16344 32 16C32 24.8366 24.8366 32 16 32C7.16344 32 0 24.8366 0 16Z"/>
</mask>
<path d="M0 16C0 7.16344 7.16344 0 16 0C24.8366 0 32 7.16344 32 16C32 24.8366 24.8366 32 16 32C7.16344 32 0 24.8366 0 16Z" fill="white"/>
<path d="M0 16M32 16M32 16M0 16M16 0M32 16M16 32M0 16M16 32V31C7.71573 31 1 24.2843 1 16H0H-1C-1 25.3888 6.61116 33 16 33V32ZM32 16H31C31 24.2843 24.2843 31 16 31V32V33C25.3888 33 33 25.3888 33 16H32ZM16 0V1C24.2843 1 31 7.71573 31 16H32H33C33 6.61116 25.3888 -1 16 -1V0ZM16 0V-1C6.61116 -1 -1 6.61116 -1 16H0H1C1 7.71573 7.71573 1 16 1V0Z" fill="black" fill-opacity="0.1" mask="url(#path-1-inside-1_13513_48260)"/>
<g clip-path="url(#clip0_13513_48260)">
<path d="M20.8672 8.80961C17.7297 6.65544 13.4423 6.85818 10.5155 9.34182C7.30419 12.0246 6.50986 16.619 8.58511 20.2228L7.36719 24.6759L11.9297 23.4812C15.3445 25.3421 19.524 24.6557 22.1727 21.9454C25.9264 18.1041 25.3095 11.8378 20.8672 8.80961ZM20.9164 21.1438C18.5334 23.3791 14.9231 23.7209 12.1513 21.9251L9.43737 22.6289L10.1542 19.9889C8.2332 17.2011 8.53443 13.4692 10.8363 11.0261C13.1389 8.58297 16.8601 8.05366 19.7557 9.81828C21.6166 10.9522 22.8621 12.8971 23.1256 14.9977C23.4174 17.3257 22.5912 19.5725 20.9164 21.1438Z" fill="#212427"/>
<path d="M20.1428 19.1712C19.8705 19.5658 19.4237 19.8309 18.961 19.9699C18.5078 20.106 18.0118 20.0894 17.557 19.9634C17.0299 19.8178 16.5426 19.6317 16.0495 19.4051C14.6194 18.7491 13.4007 17.4674 12.5079 16.1952C12.1509 15.6854 11.8599 15.1605 11.7266 14.5544C11.5391 13.6992 11.7766 12.8535 12.3928 12.2467C12.5441 12.0976 12.7136 11.9636 12.9395 11.9578C13.4036 11.9448 13.7012 11.8963 13.8489 12.2511L14.547 13.9273C14.61 14.0801 14.6281 14.2322 14.5245 14.3777C14.3515 14.6217 14.1683 14.865 13.98 15.0924C13.8526 15.2459 13.8707 15.3647 13.9655 15.5254C14.6469 16.6825 15.6519 17.5652 16.9068 18.0474C17.0683 18.1097 17.208 18.122 17.3289 17.9728L18.0726 17.054C18.1508 16.9577 18.3369 16.9519 18.4672 17.0141L20.2593 17.8758C20.5533 18.017 20.3144 18.9221 20.1428 19.1712Z" fill="#212427"/>
</g>
<defs>
<clipPath id="clip0_13513_48260">
<rect width="17.2682" height="17.35" fill="white" transform="translate(7.36719 7.32501)"/>
</clipPath>
</defs>
</svg>
