<svg width="36" height="32" viewBox="0 0 36 32" fill="none" xmlns="http://www.w3.org/2000/svg">
<path d="M17.9987 16.6666C18.3669 16.6666 18.6654 16.3682 18.6654 16C18.6654 15.6318 18.3669 15.3333 17.9987 15.3333C17.6305 15.3333 17.332 15.6318 17.332 16C17.332 16.3682 17.6305 16.6666 17.9987 16.6666Z" stroke="#0A0A0A" stroke-width="1.33333" stroke-linecap="round" stroke-linejoin="round"/>
<path d="M22.6667 16.6666C23.0349 16.6666 23.3333 16.3682 23.3333 16C23.3333 15.6318 23.0349 15.3333 22.6667 15.3333C22.2985 15.3333 22 15.6318 22 16C22 16.3682 22.2985 16.6666 22.6667 16.6666Z" stroke="#0A0A0A" stroke-width="1.33333" stroke-linecap="round" stroke-linejoin="round"/>
<path d="M13.3346 16.6666C13.7028 16.6666 14.0013 16.3682 14.0013 16C14.0013 15.6318 13.7028 15.3333 13.3346 15.3333C12.9664 15.3333 12.668 15.6318 12.668 16C12.668 16.3682 12.9664 16.6666 13.3346 16.6666Z" stroke="#0A0A0A" stroke-width="1.33333" stroke-linecap="round" stroke-linejoin="round"/>
</svg>
