<svg width="28" height="28" viewBox="0 0 28 28" fill="none" xmlns="http://www.w3.org/2000/svg">
<path d="M0 13.9305C0 6.23691 6.23691 0 13.9305 0C21.6242 0 27.8611 6.23691 27.8611 13.9305C27.8611 21.6242 21.6242 27.8611 13.9305 27.8611C6.23691 27.8611 0 21.6242 0 13.9305Z" fill="#F5F6F9"/>
<g clip-path="url(#clip0_13513_48284)">
<path d="M18.8562 10.2118L17.7522 11.3157L18.9893 12.5607H12.5924V14.1266H18.9893L17.7522 15.3637L18.8562 16.4756L21.9881 13.3437L18.8562 10.2118ZM9.46048 7.86283H14.9413V6.29688H9.46048C8.59921 6.29688 7.89453 7.00155 7.89453 7.86283V18.8245C7.89453 19.6857 8.59921 20.3904 9.46048 20.3904H14.9413V18.8245H9.46048V7.86283Z" fill="#212427"/>
</g>
<defs>
<clipPath id="clip0_13513_48284">
<rect width="18.7914" height="18.7914" fill="white" transform="translate(5.54297 3.94775)"/>
</clipPath>
</defs>
</svg>
