<svg width="28" height="28" viewBox="0 0 28 28" fill="none" xmlns="http://www.w3.org/2000/svg">
<path d="M0 13.9305C0 6.23691 6.23691 0 13.9305 0C21.6242 0 27.8611 6.23691 27.8611 13.9305C27.8611 21.6242 21.6242 27.8611 13.9305 27.8611C6.23691 27.8611 0 21.6242 0 13.9305Z" fill="#F5F6F9"/>
<path d="M11.2948 17.4539H13.0565V10.4072H11.2948V17.4539ZM13.9374 5.12207C9.0751 5.12207 5.12891 9.06826 5.12891 13.9305C5.12891 18.7928 9.0751 22.739 13.9374 22.739C18.7997 22.739 22.7458 18.7928 22.7458 13.9305C22.7458 9.06826 18.7997 5.12207 13.9374 5.12207ZM13.9374 20.9773C10.0528 20.9773 6.8906 17.8151 6.8906 13.9305C6.8906 10.046 10.0528 6.88376 13.9374 6.88376C17.8219 6.88376 20.9842 10.046 20.9842 13.9305C20.9842 17.8151 17.8219 20.9773 13.9374 20.9773ZM14.8182 17.4539H16.5799V10.4072H14.8182V17.4539Z" fill="#212427"/>
</svg>
