<svg width="28" height="28" viewBox="0 0 28 28" fill="none" xmlns="http://www.w3.org/2000/svg">
<path d="M0 13.9305C0 6.23691 6.23691 0 13.9305 0C21.6242 0 27.8611 6.23691 27.8611 13.9305C27.8611 21.6242 21.6242 27.8611 13.9305 27.8611C6.23691 27.8611 0 21.6242 0 13.9305Z" fill="#1A50A3"/>
<g clip-path="url(#clip0_13513_48273)">
<path d="M15.6876 9.03622V13.8319H8.95303L8.54882 14.2362L8.15146 14.6335V9.03622H15.6876ZM16.3727 7.66602H7.46635C7.08955 7.66602 6.78125 7.97431 6.78125 8.35112V17.9426L9.52166 15.2022H16.3727C16.7495 15.2022 17.0578 14.8939 17.0578 14.517V8.35112C17.0578 7.97431 16.7495 7.66602 16.3727 7.66602ZM19.7982 10.4064H18.428V16.5724H9.52166V17.9426C9.52166 18.3194 9.82996 18.6277 10.2068 18.6277H17.7429L20.4833 21.3681V11.0915C20.4833 10.7147 20.175 10.4064 19.7982 10.4064Z" fill="white"/>
</g>
<defs>
<clipPath id="clip0_13513_48273">
<rect width="16.4425" height="16.4425" fill="white" transform="translate(5.41016 6.29688)"/>
</clipPath>
</defs>
</svg>
